<svg width="164" height="48" viewBox="0 0 164 48" fill="none" xmlns="http://www.w3.org/2000/svg">
<path d="M154.278 7.45656C153.361 7.45258 152.453 7.62957 151.606 7.97735C150.758 8.32514 149.988 8.83685 149.339 9.48306C148.69 10.1293 148.176 10.8972 147.825 11.7428C147.475 12.5883 147.295 13.4948 147.296 14.41V17.8917C147.295 18.8069 147.475 19.7134 147.825 20.5589C148.176 21.4044 148.69 22.1724 149.339 22.8186C149.988 23.4648 150.758 23.9765 151.606 24.3243C152.453 24.6721 153.361 24.8491 154.278 24.8451H158.519L157.159 21.1319H154.278C153.852 21.1333 153.43 21.0507 153.037 20.889C152.643 20.7272 152.286 20.4895 151.984 20.1894C151.683 19.8893 151.444 19.5328 151.281 19.1402C151.118 18.7477 151.034 18.3268 151.034 17.9018V14.41C151.036 13.5524 151.379 12.7308 151.987 12.1253C152.595 11.5198 153.419 11.1798 154.278 11.1798H160.262V24.8552H163.999V7.45656H154.278ZM129.344 7.45656L136.315 24.8552H140.033L147.085 7.45656H143.347L138.239 20.186L133.081 7.45656H129.344ZM123.45 24.8653H127.188V7.45656H123.45V24.8653ZM100.572 7.45656C99.6563 7.45391 98.7494 7.63188 97.903 7.98026C97.0567 8.32864 96.2875 8.84056 95.6398 9.48664C94.992 10.1327 94.4784 10.9002 94.1284 11.7451C93.7784 12.59 93.5989 13.4956 93.6003 14.41V17.8917C93.599 18.8065 93.7784 19.7126 94.1282 20.5581C94.4781 21.4035 94.9916 22.1717 95.6392 22.8186C96.2868 23.4655 97.0559 23.9783 97.9023 24.3278C98.7487 24.6773 99.6558 24.8565 100.572 24.8552H104.773L103.453 21.1319H100.572C100.147 21.1333 99.7255 21.0506 99.3326 20.8888C98.9396 20.7269 98.5826 20.489 98.282 20.1888C97.9815 19.8886 97.7433 19.532 97.5813 19.1395C97.4192 18.747 97.3365 18.3263 97.3378 17.9018V14.41C97.3378 13.5533 97.6785 12.7317 98.285 12.1259C98.8915 11.5201 99.714 11.1798 100.572 11.1798H106.556V24.8552H110.293V7.45656H100.572ZM74.5498 7.45656V24.8552H78.2874V11.1798H84.2715C84.697 11.1785 85.1186 11.2611 85.5121 11.4228C85.9056 11.5845 86.2633 11.8223 86.5647 12.1223C86.866 12.4224 87.1051 12.779 87.2683 13.1715C87.4314 13.5641 87.5154 13.9849 87.5154 14.41V24.8552H91.253V14.41C91.2543 13.4948 91.0745 12.5883 90.7239 11.7428C90.3732 10.8972 89.8587 10.1293 89.2099 9.48306C88.5611 8.83685 87.7908 8.32514 86.9432 7.97735C86.0957 7.62957 85.1877 7.45258 84.2715 7.45656H74.5498ZM70.8626 7.45656C69.9464 7.45258 69.0384 7.62957 68.1909 7.97735C67.3434 8.32514 66.5731 8.83685 65.9242 9.48306C65.2754 10.1293 64.7609 10.8972 64.4103 11.7428C64.0596 12.5883 63.8798 13.4948 63.8812 14.41V24.8552H67.5986V14.41C67.5986 13.9849 67.6825 13.5641 67.8457 13.1715C68.0088 12.779 68.2479 12.4224 68.5493 12.1223C68.8507 11.8223 69.2083 11.5845 69.6019 11.4228C69.9954 11.2611 70.417 11.1785 70.8425 11.1798H72.3335H72.6458L71.2757 7.45656H70.8626ZM48.9209 7.45656C48.0055 7.45391 47.0986 7.63188 46.2522 7.98026C45.4059 8.32864 44.6367 8.84056 43.989 9.48664C43.3412 10.1327 42.8276 10.9002 42.4776 11.7451C42.1276 12.59 41.9481 13.4956 41.9495 14.41V17.8917C41.9481 18.8065 42.1276 19.7126 42.4774 20.5581C42.8273 21.4035 43.3408 22.1717 43.9884 22.8186C44.636 23.4655 45.4051 23.9783 46.2515 24.3278C47.0979 24.6773 48.005 24.8565 48.9209 24.8552H61.3727V21.1319H48.9007C48.4757 21.1333 48.0546 21.0506 47.6616 20.8888C47.2687 20.7269 46.9116 20.489 46.6111 20.1888C46.3105 19.8886 46.0724 19.532 45.9103 19.1395C45.7483 18.747 45.6656 18.3263 45.6669 17.9018V14.41C45.6656 13.9854 45.7483 13.5648 45.9103 13.1723C46.0724 12.7798 46.3105 12.4231 46.6111 12.1229C46.9116 11.8227 47.2687 11.5848 47.6616 11.423C48.0546 11.2611 48.4757 11.1785 48.9007 11.1798H54.4013C54.8263 11.1785 55.2474 11.2611 55.6404 11.423C56.0333 11.5848 56.3904 11.8227 56.6909 12.1229C56.9915 12.4231 57.2296 12.7798 57.3917 13.1723C57.5537 13.5648 57.6364 13.9854 57.6351 14.41H47.4097L48.7597 18.1131H61.3626C61.3626 18.0326 61.3626 17.942 61.3626 17.8615V14.41C61.3639 13.4965 61.1848 12.5917 60.8354 11.7474C60.486 10.9032 59.9733 10.1362 59.3266 9.49021C58.68 8.84426 57.912 8.33213 57.0668 7.98316C56.2216 7.63418 55.3158 7.45523 54.4013 7.45656H48.9209ZM123.47 1.99244V5.71569H127.208L125.828 2.01257L123.47 1.99244ZM23.8158 24.8653H27.5533V0H23.8158V24.8653ZM115.965 0V7.45656H112.228L113.588 11.1798H115.965V24.8552H119.713V0H115.965ZM31.8853 0V7.26536H30.1323V11.1798H31.8853V17.3986C31.8853 18.3795 32.079 19.3508 32.4554 20.2568C32.8319 21.1628 33.3835 21.9857 34.0788 22.6783C34.7742 23.371 35.5995 23.9198 36.5075 24.2934C37.4156 24.6669 38.3884 24.8578 39.3705 24.8552H41.8588L40.4988 21.1319H39.3705C38.8797 21.1346 38.3934 21.0402 37.9393 20.8541C37.4853 20.6681 37.0727 20.3941 36.7252 20.048C36.3778 19.7018 36.1024 19.2904 35.9149 18.8374C35.7274 18.3844 35.6316 17.8989 35.6329 17.4087V11.1798H39.3705L37.9399 7.26536H35.6329V0H31.8853ZM16.1896 0L1.3703 21.1319L2.73033 24.8552H14.4366L13.0968 21.1319H5.93395L16.1896 6.50059V24.8552H19.9271V0H16.1896Z" fill="white"/>
<path d="M158.418 28.3272C157.69 28.3245 156.97 28.4655 156.297 28.7421C155.624 29.0187 155.013 29.4253 154.498 29.9387C153.983 30.4521 153.574 31.0621 153.296 31.7336C153.018 32.4052 152.876 33.125 152.877 33.8517V35.9749H161.944V36.7699C161.945 37.2368 161.854 37.6993 161.676 38.1308C161.498 38.5624 161.236 38.9545 160.905 39.2846C160.575 39.6147 160.182 39.8763 159.75 40.0544C159.318 40.2324 158.855 40.3234 158.388 40.3221H152.847V42.3346H158.388C159.115 42.336 159.835 42.1941 160.507 41.917C161.18 41.64 161.79 41.2333 162.305 40.7201C162.82 40.207 163.228 39.5975 163.507 38.9266C163.785 38.2557 163.929 37.5365 163.929 36.8102V34.0026H154.862C154.862 33.5353 154.954 33.0726 155.133 32.6409C155.313 32.2093 155.576 31.8173 155.907 31.4873C156.238 31.1573 156.631 30.8959 157.064 30.7179C157.497 30.54 157.96 30.4491 158.428 30.4504H163.969V28.3272H158.418ZM143.448 28.3272C142.701 28.3259 141.961 28.4717 141.27 28.7563C140.58 29.0409 139.952 29.4588 139.423 29.9859C138.895 30.5131 138.475 31.1392 138.189 31.8284C137.903 32.5176 137.756 33.2565 137.756 34.0026V36.619C137.764 38.1207 138.367 39.558 139.434 40.6161C140.501 41.6743 141.944 42.2669 143.448 42.2642H150.822V40.2516H143.296C142.83 40.253 142.368 40.1623 141.936 39.9849C141.505 39.8075 141.113 39.5468 140.782 39.2177C140.452 38.8887 140.19 38.4978 140.011 38.0674C139.832 37.637 139.74 37.1755 139.74 36.7095V34.0026C139.74 33.0605 140.115 32.157 140.782 31.4909C141.449 30.8247 142.353 30.4504 143.296 30.4504H145.311C145.779 30.4491 146.242 30.5401 146.674 30.7181C147.106 30.8962 147.498 31.1578 147.829 31.4879C148.159 31.818 148.421 32.2101 148.6 32.6417C148.778 33.0733 148.869 33.5358 148.868 34.0026H141.141V36.0152H150.822V34.0026C150.822 33.2565 150.675 32.5176 150.388 31.8284C150.102 31.1392 149.683 30.5131 149.154 29.9859C148.626 29.4588 147.998 29.0409 147.307 28.7563C146.617 28.4717 145.877 28.3259 145.13 28.3272H143.448ZM117.718 28.3272H112.177C111.45 28.3259 110.73 28.4678 110.057 28.7448C109.385 29.0219 108.774 29.4286 108.26 29.9417C107.745 30.4548 107.337 31.0643 107.058 31.7352C106.78 32.4061 106.636 33.1253 106.636 33.8517V36.7699C106.642 38.2255 107.223 39.6199 108.253 40.6491C109.284 41.6783 110.68 42.2589 112.137 42.2642H114.746V40.2516H112.137C111.2 40.2437 110.304 39.8656 109.645 39.2C108.986 38.5344 108.618 37.6354 108.621 36.6995V34.0026C108.619 33.5358 108.711 33.0733 108.889 32.6417C109.067 32.2101 109.329 31.818 109.659 31.4879C109.99 31.1578 110.383 30.8962 110.815 30.7181C111.247 30.5401 111.71 30.4491 112.177 30.4504H115.743V42.2642H117.758L117.718 28.3272ZM104.903 28.3272H99.3626C98.6354 28.3259 97.9151 28.4678 97.2429 28.7448C96.5707 29.0219 95.9599 29.4286 95.4452 29.9417C94.9306 30.4548 94.5223 31.0643 94.2437 31.7352C93.9651 32.4061 93.8217 33.1253 93.8217 33.8517V36.7699C93.827 38.2237 94.4068 39.6166 95.4351 40.6456C96.4633 41.6745 97.8567 42.2563 99.3122 42.2642H101.932V40.2516H99.3122C98.377 40.241 97.4838 39.8618 96.8272 39.1965C96.1705 38.5312 95.8036 37.6337 95.8063 36.6995V34.0026C95.805 33.5358 95.8961 33.0733 96.0743 32.6417C96.2526 32.2101 96.5145 31.818 96.845 31.4879C97.1755 31.1578 97.568 30.8962 98.0001 30.7181C98.4321 30.5401 98.8952 30.4491 99.3626 30.4504H102.929V42.4353C102.929 42.9026 102.837 43.3653 102.657 43.797C102.478 44.2286 102.215 44.6206 101.884 44.9506C101.552 45.2806 101.159 45.542 100.727 45.72C100.294 45.8979 99.8304 45.9888 99.3626 45.9875H94.809V48H99.3525C100.08 48.0027 100.801 47.8617 101.474 47.5851C102.146 47.3085 102.758 46.9019 103.273 46.3885C103.788 45.8751 104.196 45.2651 104.474 44.5936C104.752 43.922 104.895 43.2022 104.893 42.4755L104.903 28.3272ZM122.161 28.3272H120.146V42.2642H122.161V30.4504H126.936V42.2642H128.951V30.4504H130.553C131.02 30.4491 131.484 30.54 131.917 30.7179C132.349 30.8959 132.742 31.1573 133.074 31.4873C133.405 31.8173 133.668 32.2093 133.847 32.6409C134.026 33.0726 134.119 33.5353 134.119 34.0026V42.2642H136.134V33.8517C136.135 33.125 135.993 32.4052 135.714 31.7336C135.436 31.0621 135.028 30.4521 134.513 29.9387C133.998 29.4253 133.387 29.0187 132.714 28.7421C132.041 28.4655 131.32 28.3245 130.593 28.3272H122.261H122.161Z" fill="#F22424"/>
<path d="M3.25399 0.120361L6.49791 2.465L5.25877 6.27881H1.23914L0 2.465L3.25399 0.120361Z" fill="#F22424"/>
</svg>
